<svg xmlns="http://www.w3.org/2000/svg" xmlns:xlink="http://www.w3.org/1999/xlink" version="1.1" x="0px" y="0px" viewBox="0 0 100 100" enable-background="new 0 0 100 100" xml:space="preserve"><path fill="#000000" d="M51.414,36.586c-0.781-0.781-2.047-0.781-2.828,0l-18,18c-0.781,0.781-0.781,2.047,0,2.828  s2.047,0.781,2.828,0L50,40.828l16.586,16.586C66.977,57.805,67.488,58,68,58s1.023-0.195,1.414-0.586  c0.781-0.781,0.781-2.047,0-2.828L51.414,36.586z"/><path fill="#000000" d="M92,50C92,27.233,72.767,8,50,8S8,27.233,8,50s19.233,42,42,42S92,72.767,92,50z M50,88  c-20.598,0-38-17.402-38-38s17.402-38,38-38s38,17.402,38,38S70.598,88,50,88z"/></svg>